<svg xmlns="http://www.w3.org/2000/svg" viewBox="0 0 64 64" width="64" height="64" fill="none">
	<defs>
		<filter id="tr-drop" x="-10%" y="-10%" width="120%" height="120%">
			<feDropShadow dx="0" dy="2" stdDeviation="1.5" flood-opacity="0.25" />
		</filter>
	</defs>
	<g filter="url(#tr-drop)">
		<rect x="20" y="56" width="24" height="4" rx="2" fill="#5C3615" />
		<rect x="22" y="54" width="20" height="3" fill="#7A4C24" />
		<rect x="18" y="52" width="28" height="3" rx="1" fill="#4DA227" />
		<rect x="19" y="50" width="3" height="3" fill="#6BD638" />
		<rect x="26" y="51" width="3" height="2" fill="#6BD638" />
		<rect x="36" y="50" width="3" height="3" fill="#6BD638" />
		<rect x="43" y="51" width="3" height="2" fill="#6BD638" />

		<path d="M28 32 H36 V53 H28 Z" fill="#8B5325" />
		<path d="M28 32 H32 V53 H28 Z" fill="#A16733" />
		<path d="M34 32 H36 V53 H34 Z" fill="#683B17" />
		<path d="M25 45 L28 40 V48 L23 54 H21 L25 45 Z" fill="#7A471E" />
		<path d="M22 51 L25 46 L27 48 L23 53 Z" fill="#995E2B" />
		<path d="M36 41 L41 46 L43 54 H40 L36 48 V41 Z" fill="#683B17" />
		<path d="M37 43 L40 47 L39 52 L36 47 Z" fill="#8B5325" />
		<path d="M28 34 L22 26 H26 L30 32 Z" fill="#8B5325" />
		<path d="M34 34 L42 25 H38 L32 32 Z" fill="#683B17" />

		<circle cx="32" cy="18" r="16" fill="#1C5508" />
		<circle cx="21" cy="22" r="12" fill="#1C5508" />
		<circle cx="43" cy="22" r="12" fill="#154205" />

		<circle cx="32" cy="17" r="14" fill="#328812" />
		<circle cx="21" cy="21" r="10.5" fill="#328812" />
		<circle cx="43" cy="21" r="10.5" fill="#246D0B" />

		<circle cx="31" cy="15" r="11.5" fill="#4DAF1F" />
		<circle cx="20" cy="19" r="8.5" fill="#4DAF1F" />
		<circle cx="42" cy="19" r="8.5" fill="#3A9615" />

		<circle cx="30" cy="12" r="7.5" fill="#6CD82F" />
		<circle cx="19" cy="16" r="5.5" fill="#6CD82F" />
		<circle cx="41" cy="16" r="5.5" fill="#55B824" />

		<rect x="28" y="7" width="5" height="4" rx="1.5" fill="#88EE48" />
		<rect x="17" y="12" width="4" height="3" rx="1" fill="#88EE48" />
		<rect x="38" y="12" width="4" height="3" rx="1" fill="#72DA32" />
		<rect x="23" y="11" width="3" height="3" rx="1" fill="#88EE48" />
		<rect x="33" y="16" width="3" height="3" rx="1" fill="#88EE48" />
	</g>
</svg>
